<svg xmlns="http://www.w3.org/2000/svg" viewBox="0 0 64 64" fill="none">
  <!-- Outer flame -->
  <path d="M32 4C32 4 12 24 12 40C12 51.046 20.954 60 32 60C43.046 60 52 51.046 52 40C52 24 32 4 32 4Z" fill="currentColor"/>
  <!-- Inner flame -->
  <path d="M32 20C32 20 22 32 22 40C22 45.523 26.477 50 32 50C37.523 50 42 45.523 42 40C42 32 32 20 32 20Z" fill="currentColor" opacity="0.3"/>
  <!-- Fork -->
  <rect x="27" y="30" width="2.5" height="18" rx="1.25" fill="white" opacity="0.9"/>
  <rect x="31.5" y="30" width="2.5" height="18" rx="1.25" fill="white" opacity="0.9"/>
  <rect x="25" y="30" width="2.5" height="10" rx="1.25" fill="white" opacity="0.9"/>
  <rect x="34" y="30" width="2.5" height="10" rx="1.25" fill="white" opacity="0.9"/>
  <rect x="25" y="38" width="11.5" height="2.5" rx="1.25" fill="white" opacity="0.9"/>
  <rect x="29" y="40" width="3.5" height="14" rx="1.75" fill="white" opacity="0.9"/>
</svg>
